{
  "accessors": [
    {
      "bufferView": 2,
      "componentType": 5126,
      "count": 8758,
      "max": [
        0.5126649737358093,
        0.15143699944019318,
        1.058859944343567
      ],
      "min": [
        -0.5126649737358093,
        -0.36450400948524475,
        -0.0007080790237523615
      ],
      "type": "VEC3"
    },
    {
      "bufferView": 2,
      "byteOffset": 105096,
      "componentType": 5126,
      "count": 8758,
      "max": [
        0.9999707341194153,
        0.9996373653411865,
        0.9999995231628418
      ],
      "min": [
        -0.9999707341194153,
        -1.0,
        -1.0
      ],
      "type": "VEC3"
    },
    {
      "bufferView": 1,
      "componentType": 5126,
      "count": 8758,
      "max": [
        0.9936519861221313,
        0.9951170086860657
      ],
      "min": [
        -0.9931640028953552,
        0.007286069914698601
      ],
      "type": "VEC2"
    },
    {
      "bufferView": 0,
      "componentType": 5125,
      "count": 27117,
      "type": "SCALAR"
    }
  ],
  "asset": {
    "extras": {
      "author": "HL FILMS (https://sketchfab.com/howardlipscomb42)",
      "license": "CC-BY-4.0 (http://creativecommons.org/licenses/by/4.0/)",
      "source": "https://sketchfab.com/3d-models/mobile-crash-bandicoot-on-the-run-crash-band-6e2550a0c13b429692fe0e25202216cb",
      "title": "Mobile - Crash Bandicoot On the Run - Crash Band"
    },
    "generator": "Sketchfab-14.64.0",
    "version": "2.0"
  },
  "bufferViews": [
    {
      "buffer": 0,
      "byteLength": 108468,
      "name": "floatBufferViews",
      "target": 34963
    },
    {
      "buffer": 0,
      "byteLength": 70064,
      "byteOffset": 108468,
      "byteStride": 8,
      "name": "floatBufferViews",
      "target": 34962
    },
    {
      "buffer": 0,
      "byteLength": 210192,
      "byteOffset": 178532,
      "byteStride": 12,
      "name": "floatBufferViews",
      "target": 34962
    }
  ],
  "buffers": [
    {
      "byteLength": 388724,
      "uri": "scene.bin"
    }
  ],
  "images": [
    {
      "uri": "textures/acmat_0_baseColor.png"
    }
  ],
  "materials": [
    {
      "doubleSided": true,
      "name": "acmat_0",
      "pbrMetallicRoughness": {
        "baseColorTexture": {
          "index": 0
        },
        "metallicFactor": 0.0,
        "roughnessFactor": 0.9327282867797029
      }
    }
  ],
  "meshes": [
    {
      "name": "Object_0",
      "primitives": [
        {
          "attributes": {
            "NORMAL": 1,
            "POSITION": 0,
            "TEXCOORD_0": 2
          },
          "indices": 3,
          "material": 0,
          "mode": 4
        }
      ]
    }
  ],
  "nodes": [
    {
      "children": [
        1
      ],
      "matrix": [
        1.0,
        0.0,
        0.0,
        0.0,
        0.0,
        2.220446049250313e-16,
        -1.0,
        0.0,
        0.0,
        1.0,
        2.220446049250313e-16,
        0.0,
        0.0,
        0.0,
        0.0,
        1.0
      ],
      "name": "Sketchfab_model"
    },
    {
      "children": [
        2
      ],
      "name": "Crash.obj.cleaner.materialmerger.gles"
    },
    {
      "mesh": 0,
      "name": "Object_2"
    }
  ],
  "samplers": [
    {
      "magFilter": 9729,
      "minFilter": 9987,
      "wrapS": 10497,
      "wrapT": 10497
    }
  ],
  "scene": 0,
  "scenes": [
    {
      "name": "Sketchfab_Scene",
      "nodes": [
        0
      ]
    }
  ],
  "textures": [
    {
      "sampler": 0,
      "source": 0
    }
  ]
}
